<?xml version="1.0" encoding="UTF-8"?>
<svg width="52px" height="56px" viewBox="0 0 52 56" version="1.1" xmlns="http://www.w3.org/2000/svg" xmlns:xlink="http://www.w3.org/1999/xlink">
    <title>Notification / Alt 2</title>
    <defs>
        <filter x="-7.4%" y="-10.9%" width="114.7%" height="121.7%" filterUnits="objectBoundingBox" id="filter-1">
            <feOffset dx="0" dy="2" in="SourceAlpha" result="shadowOffsetOuter1"></feOffset>
            <feGaussianBlur stdDeviation="4" in="shadowOffsetOuter1" result="shadowBlurOuter1"></feGaussianBlur>
            <feColorMatrix values="0 0 0 0 0   0 0 0 0 0   0 0 0 0 0  0 0 0 0.3 0" type="matrix" in="shadowBlurOuter1" result="shadowMatrixOuter1"></feColorMatrix>
            <feMerge>
                <feMergeNode in="shadowMatrixOuter1"></feMergeNode>
                <feMergeNode in="SourceGraphic"></feMergeNode>
            </feMerge>
        </filter>
        <filter id="filter-2">
            <feColorMatrix in="SourceGraphic" type="matrix" values="0 0 0 0 0.000000 0 0 0 0 0.725490 0 0 0 0 0.937255 0 0 0 1.000000 0"></feColorMatrix>
        </filter>
    </defs>
    <g id="Page-1" stroke="none" stroke-width="1" fill="none" fill-rule="evenodd">
        <g id="팝업" transform="translate(-118.000000, -293.000000)">
            <g id="Group-19" filter="url(#filter-1)" transform="translate(8.000000, 267.000000)">
                <g id="Notification-/-Alt-2" transform="translate(116.000000, 32.000000)" filter="url(#filter-2)">
                    <g id="help-alt-2" transform="translate(1.666667, 0.000000)" fill="#000000" fill-rule="nonzero">
                        <path d="M18.3333333,25 C17.4128588,25 16.6666667,24.2538079 16.6666667,23.3333333 L16.6666667,20 C16.6666667,19.0795254 17.4128588,18.3333333 18.3333333,18.3333333 C21.0947571,18.3333333 23.3333333,16.0947571 23.3333333,13.3333333 C23.3333333,10.5719096 21.0947571,8.33333333 18.3333333,8.33333333 C15.5719096,8.33333333 13.3333333,10.5719096 13.3333333,13.3333333 C13.3333333,14.2538079 12.5871412,15 11.6666667,15 C10.7461921,15 10,14.2538079 10,13.3333333 C10.0008951,8.94812247 13.4001798,5.31390476 17.7755568,5.02038872 C22.1509337,4.72687267 26.005169,7.87449813 26.5917717,12.2202975 C27.1783743,16.5660969 24.2966117,20.6229577 20,21.5 L20,23.3333333 C20,24.2538079 19.2538079,25 18.3333333,25 Z" id="Path"></path>
                        <circle id="Oval" cx="18.3333333" cy="28.3333333" r="1.66666667"></circle>
                        <path d="M18.3333333,40.0000279 C17.8903284,40.0025613 17.4645314,39.8286442 17.15,39.5166667 L12.65,35 L5.83333333,35 C3.07190958,35 0.833333333,32.7614237 0.833333333,30 L0.833333333,5 C0.833333333,2.23857625 3.07190958,0 5.83333333,0 L30.8333333,0 C33.5947571,0 35.8333333,2.23857625 35.8333333,5 L35.8333333,30 C35.8333333,32.7614237 33.5947571,35 30.8333333,35 L24.0166667,35 L19.5166667,39.5166667 C19.2021353,39.8286442 18.7763383,40.0025613 18.3333333,40.0000279 Z M5.83333333,3.33333333 C4.91285875,3.33333333 4.16666667,4.07952542 4.16666667,5 L4.16666667,30 C4.16666667,30.9204746 4.91285875,31.6666667 5.83333333,31.6666667 L13.3333333,31.6666667 C13.7763383,31.6641054 14.2021353,31.8380225 14.5166667,32.15 L18.3333333,35.9833333 L22.15,32.15 C22.4645314,31.8380225 22.8903284,31.6641054 23.3333333,31.6666667 L30.8333333,31.6666667 C31.7538079,31.6666667 32.5,30.9204746 32.5,30 L32.5,5 C32.5,4.07952542 31.7538079,3.33333333 30.8333333,3.33333333 L5.83333333,3.33333333 Z" id="Shape"></path>
                    </g>
                </g>
            </g>
        </g>
    </g>
</svg>