<?xml version="1.0" encoding="UTF-8"?>
<svg width="20px" height="22px" viewBox="0 0 20 22" version="1.1" xmlns="http://www.w3.org/2000/svg" xmlns:xlink="http://www.w3.org/1999/xlink">
    <title>notification / notification_outline</title>
    <g id="Page-1" stroke="none" stroke-width="1" fill="none" fill-rule="evenodd">
        <g id="상세페이지" transform="translate(-406.000000, -539.000000)" fill="#0A0A0A" fill-rule="nonzero">
            <g id="알림" transform="translate(399.000000, 538.000000)">
                <g id="Group" transform="translate(5.000000, 0.000000)">
                    <g id="notification-alt-1" transform="translate(2.000000, 1.000000)">
                        <path d="M17,18 L3,18 C2.44771525,18 2,17.5522847 2,17 L2,10 C2,5.581722 5.581722,2 10,2 C14.418278,2 18,5.581722 18,10 L18,17 C18,17.5522847 17.5522847,18 17,18 Z M4,16 L16,16 L16,10 C16,6.6862915 13.3137085,4 10,4 C6.6862915,4 4,6.6862915 4,10 L4,16 Z" id="Shape"></path>
                        <path d="M10,4 C9.44771525,4 9,3.55228475 9,3 L9,1 C9,0.44771525 9.44771525,0 10,0 C10.5522847,0 11,0.44771525 11,1 L11,3 C11,3.55228475 10.5522847,4 10,4 Z" id="Path"></path>
                        <path d="M19,18 L1,18 C0.44771525,18 0,17.5522847 0,17 C0,16.4477153 0.44771525,16 1,16 L19,16 C19.5522847,16 20,16.4477153 20,17 C20,17.5522847 19.5522847,18 19,18 Z" id="Path"></path>
                        <path d="M10,22 C8.34314575,22 7,20.6568542 7,19 C7,17.3431458 8.34314575,16 10,16 C11.6568542,16 13,17.3431458 13,19 C13,20.6568542 11.6568542,22 10,22 Z M10,18 C9.44771525,18 9,18.4477153 9,19 C9,19.5522847 9.44771525,20 10,20 C10.5522847,20 11,19.5522847 11,19 C11,18.4477153 10.5522847,18 10,18 Z" id="Shape"></path>
                    </g>
                </g>
            </g>
        </g>
    </g>
</svg>