<?xml version="1.0" encoding="UTF-8"?>
<svg width="24px" height="24px" viewBox="0 0 24 24" version="1.1" xmlns="http://www.w3.org/2000/svg" xmlns:xlink="http://www.w3.org/1999/xlink">
    <title>Notification / Alt 2</title>
    <g id="Notification-/-Alt-2" stroke="none" stroke-width="1" fill="none" fill-rule="evenodd">
        <g id="notification-alt-1" transform="translate(2.000000, 1.000000)" fill="#00B9EF" fill-rule="nonzero">
            <path d="M17,18 L3,18 C2.44771525,18 2,17.5522847 2,17 L2,10 C2,5.581722 5.581722,2 10,2 C14.418278,2 18,5.581722 18,10 L18,17 C18,17.5522847 17.5522847,18 17,18 Z" id="Shape"></path>
            <path d="M10,4 C9.44771525,4 9,3.55228475 9,3 L9,1 C9,0.44771525 9.44771525,0 10,0 C10.5522847,0 11,0.44771525 11,1 L11,3 C11,3.55228475 10.5522847,4 10,4 Z" id="Path"></path>
            <path d="M19,18 L1,18 C0.44771525,18 0,17.5522847 0,17 C0,16.4477153 0.44771525,16 1,16 L19,16 C19.5522847,16 20,16.4477153 20,17 C20,17.5522847 19.5522847,18 19,18 Z" id="Path"></path>
            <path d="M10,22 C8.34314575,22 7,20.6568542 7,19 C7,17.3431458 8.34314575,16 10,16 C11.6568542,16 13,17.3431458 13,19 C13,20.6568542 11.6568542,22 10,22 Z" id="Shape"></path>
        </g>
    </g>
</svg>