<?xml version="1.0" encoding="UTF-8"?>
<svg width="24px" height="24px" viewBox="0 0 24 24" version="1.1" xmlns="http://www.w3.org/2000/svg" xmlns:xlink="http://www.w3.org/1999/xlink">
    <title>Menu / Alt 2</title>
    <g id="Menu-/-Alt-2" stroke="none" stroke-width="1" fill="none" fill-rule="evenodd">
        <g id="menu-alt-3" transform="translate(4.000000, 6.000000)" fill="#000000" fill-rule="nonzero">
            <path d="M15,7 L1,7 C0.44771525,7 0,6.55228475 0,6 C0,5.44771525 0.44771525,5 1,5 L15,5 C15.5522847,5 16,5.44771525 16,6 C16,6.55228475 15.5522847,7 15,7 Z" id="Path"></path>
            <path d="M15,2 L1,2 C0.44771525,2 0,1.55228475 0,1 C0,0.44771525 0.44771525,0 1,0 L15,0 C15.5522847,0 16,0.44771525 16,1 C16,1.55228475 15.5522847,2 15,2 Z" id="Path"></path>
            <path d="M15,12 L1,12 C0.44771525,12 0,11.5522847 0,11 C0,10.4477153 0.44771525,10 1,10 L15,10 C15.5522847,10 16,10.4477153 16,11 C16,11.5522847 15.5522847,12 15,12 Z" id="Path"></path>
        </g>
    </g>
</svg>