<?xml version="1.0" encoding="UTF-8"?>
<svg width="80px" height="27px" viewBox="0 0 80 27" version="1.1" xmlns="http://www.w3.org/2000/svg" xmlns:xlink="http://www.w3.org/1999/xlink">
    <title>Group 19</title>
    <defs>
        <polygon id="path-1" points="0.0287058824 0.0784941176 15.9505882 0.0784941176 15.9505882 16 0.0287058824 16"></polygon>
        <polygon id="path-3" points="0 0.103437288 14.784 0.103437288 14.784 18.8590136 0 18.8590136"></polygon>
    </defs>
    <g id="Page-1" stroke="none" stroke-width="1" fill="none" fill-rule="evenodd">
        <g id="메인페이지-수정A안-Copy" transform="translate(-16.000000, -16.000000)">
            <g id="Group-19" transform="translate(16.000000, 16.000000)">
                <g id="Group-3" transform="translate(64.000000, 11.000000)">
                    <mask id="mask-2" fill="white">
                        <use xlink:href="#path-1"></use>
                    </mask>
                    <g id="Clip-2"></g>
                    <path d="M7.98980392,4.5164549 C6.04752941,4.5164549 4.46698039,6.0966902 4.46698039,8.03927843 C4.46698039,9.98186667 6.04752941,11.562102 7.98980392,11.562102 C9.93207843,11.562102 11.5126275,9.98186667 11.5126275,8.03927843 C11.5126275,6.0966902 9.93207843,4.5164549 7.98980392,4.5164549 M7.98980392,16.0000627 C3.60015686,16.0000627 0.0287058824,12.4289255 0.0287058824,8.03927843 C0.0287058824,3.64963137 3.60015686,0.0784941176 7.98980392,0.0784941176 C12.3791373,0.0784941176 15.9505882,3.64963137 15.9505882,8.03927843 C15.9505882,12.4289255 12.3791373,16.0000627 7.98980392,16.0000627" id="Fill-1" fill="#00B9EF" mask="url(#mask-2)"></path>
                </g>
                <path d="M43.9723811,12.7645988 L38.0285624,12.7645988 L38.0285624,8 L33,8 L33,18.7019969 C33,23.2848852 36.5817656,27 41.0001573,27 C45.4188634,27 49,23.2848852 49,18.7019969 L49,8 L43.9723811,8 L43.9723811,12.7645988 Z" id="Fill-4" fill="#00B9EF"></path>
                <path d="M44,18.4998348 C44,20.4331021 42.4329542,22 40.4995044,22 C38.5667154,22 37,20.4331021 37,18.4998348 C37,16.5665676 38.5667154,15 40.4995044,15 C42.4329542,15 44,16.5665676 44,18.4998348" id="Fill-6" fill="#000000"></path>
                <path d="M41,18 C41,18.5527147 40.5522688,19 40.0005744,19 C39.4477312,19 39,18.5527147 39,18 C39,17.4475725 39.4477312,17 40.0005744,17 C40.5522688,17 41,17.4475725 41,18" id="Fill-8" fill="#FFFFFF"></path>
                <polygon id="Fill-10" fill="#FF8F1C" points="74.3434109 9 69.6565891 9 68 0 76 0"></polygon>
                <polygon id="Fill-12" fill="#00B9EF" points="24.1333705 4 19 4 19 24 24.1333705 24 24.1333705 16.406168 29 16.406168 29 11.7007874 24.1333705 11.7007874"></polygon>
                <polygon id="Fill-14" fill="#00B9EF" points="58.1333705 4 53 4 53 24 58.1333705 24 58.1333705 16.406168 63 16.406168 63 11.7007874 58.1333705 11.7007874"></polygon>
                <g id="Group-18" transform="translate(0.000000, 8.000000)">
                    <mask id="mask-4" fill="white">
                        <use xlink:href="#path-3"></use>
                    </mask>
                    <g id="Clip-17"></g>
                    <polygon id="Fill-16" fill="#00B9EF" mask="url(#mask-4)" points="14.7124375 18.8590136 -6.25e-05 18.8590136 -6.25e-05 7.20331864 10.3630625 7.20331864 10.3630625 4.65892881 0.035875 4.65892881 0.035875 0.103437288 14.784 0.103437288 14.784 11.7588102 4.4205625 11.7588102 4.4205625 14.303522 14.7124375 14.303522"></polygon>
                </g>
            </g>
        </g>
    </g>
</svg>