<?xml version="1.0" encoding="UTF-8"?>
<svg width="80px" height="27px" viewBox="0 0 80 27" version="1.1" xmlns="http://www.w3.org/2000/svg" xmlns:xlink="http://www.w3.org/1999/xlink">
    <title>rabang_white</title>
    <defs>
        <polygon id="path-1" points="0.029516129 0.0804214286 16.4008065 0.0804214286 16.4008065 16.3928571 0.029516129 16.3928571"></polygon>
        <polygon id="path-3" points="0 0.103242857 15.2609032 0.103242857 15.2609032 18.8235643 0 18.8235643"></polygon>
    </defs>
    <g id="Page-1" stroke="none" stroke-width="1" fill="none" fill-rule="evenodd">
        <g id="라방-메인" transform="translate(-16.000000, -16.000000)">
            <g id="Group-19" transform="translate(16.000000, 16.000000)">
                <g id="Group-3" transform="translate(63.548387, 10.353921)">
                    <mask id="mask-2" fill="white">
                        <use xlink:href="#path-1"></use>
                    </mask>
                    <g id="Clip-2"></g>
                    <path d="M8.21532258,4.62735 C6.21822581,4.62735 4.59306452,6.24638571 4.59306452,8.23667143 C4.59306452,10.2269571 6.21822581,11.8459929 8.21532258,11.8459929 C10.2124194,11.8459929 11.8375806,10.2269571 11.8375806,8.23667143 C11.8375806,6.24638571 10.2124194,4.62735 8.21532258,4.62735 M8.21532258,16.3929214 C3.70177419,16.3929214 0.029516129,12.7341 0.029516129,8.23667143 C0.029516129,3.73924286 3.70177419,0.0804214286 8.21532258,0.0804214286 C12.7285484,0.0804214286 16.4008065,3.73924286 16.4008065,8.23667143 C16.4008065,12.7341 12.7285484,16.3929214 8.21532258,16.3929214" id="Fill-1" fill="#FFFFFF" mask="url(#mask-2)"></path>
                </g>
                <path d="M37.868,7.88583214 L37.868,12.5802964 L43.964129,12.5802964 L43.964129,7.88583214 L49.1205806,7.88583214 L49.1205806,18.4302964 C49.1205806,22.945725 45.4476774,26.6061536 40.9157419,26.6061536 C36.384129,26.6061536 32.7105806,22.945725 32.7105806,18.4302964 L32.7105806,18.4302964 L32.7105806,7.88583214 L37.868,7.88583214 Z M40.9155806,15.3782679 C39.0284839,15.3782679 37.4988065,16.9024821 37.4988065,18.7834821 C37.4988065,20.6644821 39.0284839,22.1890179 40.9155806,22.1890179 C42.8033226,22.1890179 44.3333226,20.6644821 44.3333226,18.7834821 C44.3333226,16.9024821 42.8033226,15.3782679 40.9155806,15.3782679 Z" id="Combined-Shape" fill="#FFFFFF"></path>
                <path d="M40.9156774,17.6641393 C40.9156774,18.2825679 40.4127742,18.7830321 39.7930968,18.7830321 C39.172129,18.7830321 38.6692258,18.2825679 38.6692258,17.6641393 C38.6692258,17.0460321 39.172129,16.5452464 39.7930968,16.5452464 C40.4127742,16.5452464 40.9156774,17.0460321 40.9156774,17.6641393" id="Fill-8" fill="#FFFFFF"></path>
                <polygon id="Fill-10" fill="#FF8F1C" points="74.0450968 8.94413571 69.481871 8.94413571 67.8689677 6.42857143e-05 75.658 6.42857143e-05"></polygon>
                <polygon id="Fill-12" fill="#FFFFFF" points="24.5834516 4.295025 19.5363548 4.295025 19.5363548 23.8893107 24.5834516 23.8893107 24.5834516 16.449525 29.3682903 16.449525 29.3682903 11.8395964 24.5834516 11.8395964"></polygon>
                <polygon id="Fill-14" fill="#FFFFFF" points="57.8070645 4.295025 52.7599677 4.295025 52.7599677 23.8893107 57.8070645 23.8893107 57.8070645 16.449525 62.5919032 16.449525 62.5919032 11.8395964 57.8070645 11.8395964"></polygon>
                <g id="Group-18" transform="translate(0.000000, 7.782493)">
                    <mask id="mask-4" fill="white">
                        <use xlink:href="#path-3"></use>
                    </mask>
                    <g id="Clip-17"></g>
                    <polygon id="Fill-16" fill="#FFFFFF" mask="url(#mask-4)" points="15.1870323 18.8235643 -6.4516129e-05 18.8235643 -6.4516129e-05 7.18977857 10.6973548 7.18977857 10.6973548 4.65017143 0.0370322581 4.65017143 0.0370322581 0.103242857 15.2609032 0.103242857 15.2609032 11.7367071 4.56316129 11.7367071 4.56316129 14.2766357 15.1870323 14.2766357"></polygon>
                </g>
            </g>
        </g>
    </g>
</svg>
