<?xml version="1.0" encoding="UTF-8"?>
<svg width="25px" height="24px" viewBox="0 0 25 24" version="1.1" xmlns="http://www.w3.org/2000/svg" xmlns:xlink="http://www.w3.org/1999/xlink">
    <title>Settings / Alt 1</title>
    <g id="Page-1" stroke="none" stroke-width="1" fill="none" fill-rule="evenodd">
        <g id="마이페이지" transform="translate(-319.000000, -70.000000)" fill="#000000" fill-rule="nonzero">
            <g id="Group-3" transform="translate(16.000000, 70.000000)">
                <g id="settings-alt-1" transform="translate(303.500000, 0.000000)">
                    <path d="M14,24.0002058 L10,24.0002058 C9.51723924,24.0097357 9.09647363,23.6731232 9,23.2 L8.64,21.42 C8.31,21.3 7.99,21.17 7.64,21.02 L6.14,22.02 C5.7448986,22.2847013 5.21803236,22.2345236 4.88,21.9 L2.1,19.07 C1.7718113,18.7269803 1.73002658,18.2004929 2,17.81 L3,16.31 C2.84682328,15.9849507 2.71325084,15.6510196 2.6,15.31 L0.8,15 C0.326876783,14.9035264 -0.0097357054,14.4827608 -0.000205836342,14 L-0.000205836342,10 C-0.0097357054,9.51723924 0.326876783,9.09647363 0.8,9 L2.58,8.64 C2.69325084,8.29898038 2.82682328,7.96504927 2.98,7.64 L2,6.19 C1.73002658,5.79950715 1.7718113,5.27301967 2.1,4.93 L4.93,2.1 C5.27301967,1.7718113 5.79950715,1.73002658 6.19,2 L7.69,3 C8.01,2.85 8.33,2.72 8.69,2.6 L9,0.8 C9.09647363,0.326876783 9.51723924,-0.0097357054 10,-0.000205836342 L14,-0.000205836342 C14.4827608,-0.0097357054 14.9035264,0.326876783 15,0.8 L15.36,2.58 C15.69,2.7 16.01,2.83 16.36,2.98 L17.86,1.98 C18.2551014,1.71529866 18.7819676,1.76547639 19.12,2.1 L21.9,4.93 C22.2281887,5.27301967 22.2699734,5.79950715 22,6.19 L21,7.69 C21.1531767,8.01504927 21.2867492,8.34898038 21.4,8.69 L23.2,9 C23.6731232,9.09647363 24.0097357,9.51723924 24.0002058,10 L24.0002058,14 C24.0097357,14.4827608 23.6731232,14.9035264 23.2,15 L21.42,15.36 C21.3067492,15.7010196 21.1731767,16.0349507 21.02,16.36 L22.02,17.86 C22.2847013,18.2551014 22.2345236,18.7819676 21.9,19.12 L19.07,21.9 C18.7319676,22.2345236 18.2051014,22.2847013 17.81,22.02 L16.31,21.02 C15.99,21.17 15.67,21.3 15.31,21.42 L15,23.2 C14.9035264,23.6731232 14.4827608,24.0097357 14,24.0002058 Z M10.82,22 L13.18,22 L13.49,20.45 C13.5659483,20.0838407 13.8398475,19.7906527 14.2,19.69 C14.7848048,19.5213338 15.3484514,19.286481 15.88,18.99 C16.1894011,18.8113672 16.5705989,18.8113672 16.88,18.99 L18.19,19.87 L19.86,18.2 L19,16.93 C18.8213672,16.6205989 18.8213672,16.2394011 19,15.93 C19.2944474,15.3939669 19.5291855,14.8272419 19.7,14.24 C19.8006527,13.8798475 20.0938407,13.6059483 20.46,13.53 L22,13.18 L22,10.82 L20.45,10.51 C20.0838407,10.4340517 19.7906527,10.1601525 19.69,9.8 C19.5223766,9.21316954 19.2909977,8.64645871 19,8.11 C18.8213672,7.80059892 18.8213672,7.41940108 19,7.11 L19.88,5.8 L18.24,4.09 L16.93,5 C16.6205989,5.17863279 16.2394011,5.17863279 15.93,5 C15.3984514,4.70351897 14.8348048,4.46866623 14.25,4.3 C13.8898475,4.19934726 13.6159483,3.9061593 13.54,3.54 L13.18,2 L10.82,2 L10.51,3.55 C10.4340517,3.9161593 10.1601525,4.20934726 9.8,4.31 C9.21562339,4.47548202 8.65199222,4.70697339 8.12,5 C7.81059892,5.17863279 7.42940108,5.17863279 7.12,5 L5.76,4.09 L4.09,5.76 L5,7.07 C5.17863279,7.37940108 5.17863279,7.76059892 5,8.07 C4.70555263,8.60603306 4.47081447,9.17275805 4.3,9.76 C4.19934726,10.1201525 3.9061593,10.3940517 3.54,10.47 L2,10.82 L2,13.18 L3.55,13.49 C3.9161593,13.5659483 4.20934726,13.8398475 4.31,14.2 C4.47762337,14.7868305 4.70900234,15.3535413 5,15.89 C5.17863279,16.1994011 5.17863279,16.5805989 5,16.89 L4.12,18.2 L5.79,19.87 L7.07,19 C7.37940108,18.8213672 7.76059892,18.8213672 8.07,19 C8.60154863,19.296481 9.1651952,19.5313338 9.75,19.7 C10.1101525,19.8006527 10.3840517,20.0938407 10.46,20.46 L10.82,22 Z" id="Shape"></path>
                    <path d="M12,18 C8.6862915,18 6,15.3137085 6,12 C6,8.6862915 8.6862915,6 12,6 C15.3137085,6 18,8.6862915 18,12 C18,13.5912989 17.367859,15.1174224 16.2426407,16.2426407 C15.1174224,17.367859 13.5912989,18 12,18 Z M12,8 C9.790861,8 8,9.790861 8,12 C8,14.209139 9.790861,16 12,16 C14.209139,16 16,14.209139 16,12 C16,10.939134 15.5785726,9.92171839 14.8284271,9.17157288 C14.0782816,8.42142736 13.060866,8 12,8 Z" id="Shape"></path>
                </g>
            </g>
        </g>
    </g>
</svg>