<svg xmlns="http://www.w3.org/2000/svg" viewBox="0 0 254.86 263.5"><defs><style>.cls-1{fill:#fff;}.cls-2{fill:#00b9ef;}.cls-3,.cls-5{fill:none;}.cls-3,.cls-5,.cls-6,.cls-7{stroke:#000;stroke-width:3px;}.cls-3,.cls-5,.cls-7,.cls-8{stroke-linecap:round;}.cls-3,.cls-6,.cls-7{stroke-miterlimit:10;}.cls-4,.cls-6{fill:#ff8f1c;}.cls-5,.cls-8{stroke-linejoin:round;}.cls-7{fill:#999;}.cls-8{fill:#ff6180;stroke:#ff6180;}</style></defs><title>live_img</title><g id="레이어_2" data-name="레이어 2"><g id="레이어_1-2" data-name="레이어 1"><rect class="cls-1" x="1.5" y="63.5" width="251.86" height="171" rx="10.6" ry="10.6"/><path d="M242.76,65a9.11,9.11,0,0,1,9.1,9.1V223.9a9.11,9.11,0,0,1-9.1,9.1H12.1A9.11,9.11,0,0,1,3,223.9V74.1A9.11,9.11,0,0,1,12.1,65H242.76m0-3H12.1A12.1,12.1,0,0,0,0,74.1V223.9A12.1,12.1,0,0,0,12.1,236H242.76a12.1,12.1,0,0,0,12.1-12.1V74.1A12.1,12.1,0,0,0,242.76,62Z"/><path class="cls-2" d="M203.29,203.37v12.06a8.58,8.58,0,0,1-8.58,8.57H19a8.57,8.57,0,0,1-8.57-8.57V82.57A8.57,8.57,0,0,1,19,74H194.71a8.58,8.58,0,0,1,8.58,8.57v98"/><path class="cls-3" d="M85.19,74H194.71a8.58,8.58,0,0,1,8.58,8.57v98"/><line class="cls-3" x1="64.43" y1="74" x2="75.65" y2="74"/><path class="cls-3" d="M203.29,203.37v12.06a8.58,8.58,0,0,1-8.58,8.57H19a8.57,8.57,0,0,1-8.57-8.57V82.57A8.57,8.57,0,0,1,19,74H34.86"/><polygon class="cls-1" points="78.41 132.16 69.08 132.16 69.08 168.51 78.41 168.51 78.41 154.71 87.25 154.71 87.25 146.16 78.41 146.16 78.41 132.16"/><polygon class="cls-1" points="139.82 132.16 130.49 132.16 130.49 168.51 139.82 168.51 139.82 154.71 148.67 154.71 148.67 146.16 139.82 146.16 139.82 132.16"/><polygon class="cls-1" points="61.04 173.55 32.96 173.55 32.96 151.97 52.74 151.97 52.74 147.25 33.03 147.25 33.03 138.82 61.17 138.82 61.17 160.4 41.4 160.4 41.4 165.11 61.04 165.11 61.04 173.55"/><path class="cls-1" d="M165.62,173.81a15.13,15.13,0,1,1,15.13-15.13,15.15,15.15,0,0,1-15.13,15.13m0-21.83a6.7,6.7,0,1,0,6.7,6.7,6.71,6.71,0,0,0-6.7-6.7"/><path class="cls-1" d="M114.23,147.53H103v-8.71H93.43v19.56a15.17,15.17,0,1,0,30.33,0V138.82h-9.53Z"/><path class="cls-2" d="M114.91,159a6.32,6.32,0,1,1-6.31-6.32,6.3,6.3,0,0,1,6.31,6.32"/><path class="cls-1" d="M108.6,157a2.08,2.08,0,1,1-2.08-2.08A2.08,2.08,0,0,1,108.6,157"/><polygon class="cls-4" points="169.84 140.78 161.4 140.78 158.42 124.19 172.82 124.19 169.84 140.78"/><polygon class="cls-5" points="179.78 235 191 262 194.76 235 179.78 235"/><polygon class="cls-5" points="75.08 235 63.86 262 60.09 235 75.08 235"/><path class="cls-6" d="M102.93,50.5h50a12,12,0,0,1,12,12v1a0,0,0,0,1,0,0h-75a0,0,0,0,1,0,0v0A13,13,0,0,1,102.93,50.5Z"/><line class="cls-3" x1="127.43" y1="50.5" x2="93.36" y2="1.5"/><line class="cls-3" x1="127.43" y1="50.5" x2="161.5" y2="1.5"/><circle class="cls-7" cx="228.36" cy="95.5" r="12"/><circle class="cls-7" cx="228.36" cy="128.5" r="12"/><path class="cls-8" d="M217.78,180.56v-7.4H239v1.58H219.36v5.82Z"/><path class="cls-8" d="M237.33,187.53h-18v1h-1.58v-1h0v-1.61h0v-1h1.58v1h18v-1h1.58v1h0v1.61h0v1h-1.58Z"/><path class="cls-8" d="M238.94,203.37l-21.11-3.8v-2.94l21.11-3.74v1.61L219.42,198v.26l19.52,3.52Z"/><path class="cls-8" d="M237.36,209.27H230v5.3h-1.59v-5.3h-9v6.6h-1.61v-8.18h21.19v8.18h-1.58Z"/><line class="cls-3" x1="217.86" y1="152" x2="237.86" y2="152"/><line class="cls-3" x1="218.36" y1="162.5" x2="238.36" y2="162.5"/></g></g></svg>