<?xml version="1.0" encoding="UTF-8"?>
<svg width="24px" height="24px" viewBox="0 0 24 24" version="1.1" xmlns="http://www.w3.org/2000/svg" xmlns:xlink="http://www.w3.org/1999/xlink">
    <title>Upload</title>
    <g id="Upload" stroke="none" stroke-width="1" fill="none" fill-rule="evenodd">
        <g id="upload" transform="translate(0.000000, 1.000000)" fill="#FFFFFF" fill-rule="nonzero">
            <path d="M15.71,3.29 L12.71,0.29 C12.6148963,0.198959371 12.5027513,0.127594388 12.38,0.08 C12.1365386,-0.0200180181 11.8634614,-0.0200180181 11.62,0.08 C11.4972487,0.127594388 11.3851037,0.198959371 11.29,0.29 L8.29,3.29 C7.89787784,3.68212217 7.89787784,4.31787782 8.29000001,4.70999999 C8.68212218,5.10212216 9.31787783,5.10212216 9.71,4.71 L11,3.41 L11,16 C11,16.5522847 11.4477153,17 12,17 C12.5522847,17 13,16.5522847 13,16 L13,3.41 L14.29,4.71 C14.4777666,4.89931265 14.7333625,5.00579832 15,5.00579832 C15.2666375,5.00579832 15.5222334,4.89931265 15.71,4.71 C15.8993127,4.5222334 16.0057983,4.26663754 16.0057983,4 C16.0057983,3.73336246 15.8993127,3.4777666 15.71,3.29 Z" id="Path"></path>
            <path d="M21,22 L3,22 C1.34314575,22 0,20.6568542 0,19 L0,13 C0,12.4477153 0.44771525,12 1,12 C1.55228475,12 2,12.4477153 2,13 L2,19 C2,19.5522847 2.44771525,20 3,20 L21,20 C21.5522847,20 22,19.5522847 22,19 L22,13 C22,12.4477153 22.4477153,12 23,12 C23.5522847,12 24,12.4477153 24,13 L24,19 C24,20.6568542 22.6568542,22 21,22 Z" id="Path"></path>
        </g>
    </g>
</svg>