<?xml version="1.0" encoding="UTF-8"?>
<svg width="24px" height="24px" viewBox="0 0 24 24" version="1.1" xmlns="http://www.w3.org/2000/svg" xmlns:xlink="http://www.w3.org/1999/xlink">
    <title>visibility</title>
    <defs>
        <path d="M12,4.49999997 C6.99999995,4.49999997 2.72999996,7.60999998 0.999999954,12 C2.72999996,16.39 6.99999995,19.5 12,19.5 C17,19.5 21.27,16.39 23,12 C21.27,7.60999998 17,4.49999997 12,4.49999997 L12,4.49999997 Z M12,17 C9.23999999,17 6.99999998,14.76 6.99999998,12 C6.99999998,9.23999999 9.23999999,6.99999998 12,6.99999998 C14.76,6.99999998 17,9.23999999 17,12 C17,14.76 14.76,17 12,17 L12,17 Z M12,8.99999999 C10.34,8.99999999 8.99999999,10.34 8.99999999,12 C8.99999999,13.66 10.34,15 12,15 C13.66,15 15,13.66 15,12 C15,10.34 13.66,8.99999999 12,8.99999999 L12,8.99999999 Z" id="path-1"></path>
    </defs>
    <g id="visibility" stroke="none" stroke-width="1" fill="none" fill-rule="evenodd">
        <polygon id="Base" points="-4.99999828e-08 -5.00003807e-08 24.0000001 -5.00003807e-08 24.0000001 24 -4.99999828e-08 24"></polygon>
        <mask id="mask-2" fill="white">
            <use xlink:href="#path-1"></use>
        </mask>
        <g id="Icon" fill-rule="nonzero"></g>
        <rect id="↳-🎨-Color" fill="#FFFFFF" mask="url(#mask-2)" x="0" y="0" width="24" height="24"></rect>
    </g>
</svg>