<?xml version="1.0" encoding="UTF-8"?>
<svg width="24px" height="24px" viewBox="0 0 24 24" version="1.1" xmlns="http://www.w3.org/2000/svg" xmlns:xlink="http://www.w3.org/1999/xlink">
    <title>volume_up</title>
    <defs>
        <path d="M2.99999996,8.99999997 L2.99999996,15 L6.99999996,15 L12,20 L12,3.99999997 L6.99999996,8.99999997 L2.99999996,8.99999997 L2.99999996,8.99999997 Z M16.5,12 C16.5,10.23 15.48,8.70999999 14,7.96999998 L14,16.02 C15.48,15.29 16.5,13.77 16.5,12 L16.5,12 Z M14,3.22999996 L14,5.28999997 C16.89,6.14999998 19,8.82999999 19,12 C19,15.17 16.89,17.85 14,18.71 L14,20.77 C18.01,19.86 21,16.28 21,12 C21,7.71999998 18.01,4.13999997 14,3.22999996 L14,3.22999996 Z" id="path-1"></path>
    </defs>
    <g id="volume_up" stroke="none" stroke-width="1" fill="none" fill-rule="evenodd">
        <polygon id="Base" fill-rule="nonzero" points="-5.00000112e-08 -5.00003807e-08 24 -5.00003807e-08 24 24 -5.00000112e-08 24"></polygon>
        <mask id="mask-2" fill="white">
            <use xlink:href="#path-1"></use>
        </mask>
        <g id="Icon" fill-rule="nonzero"></g>
        <rect id="↳-🎨-Color" fill="#FFFFFF" mask="url(#mask-2)" x="0" y="0" width="24" height="24"></rect>
    </g>
</svg>